<svg xmlns="http://www.w3.org/2000/svg" version="1.1" xmlns:xlink="http://www.w3.org/1999/xlink" xmlns:svgjs="http://svgjs.com/svgjs" width="1920" height="1080" preserveAspectRatio="none" viewBox="0 0 1920 1080"><g mask="url(&quot;#SvgjsMask1083&quot;)" fill="none"><rect width="1920" height="1080" x="0" y="0" fill="rgba(255, 255, 255, 1)"></rect><path d="M1952 1080L0 1080 L0 1063.39Q-0.28 903.12, 160 902.84Q211.56 794.4, 320 845.96Q374.35 804.31, 416 858.65Q612.27 894.92, 576 1091.19Q663.66 1082.85, 672 1170.51Q672.23 1074.74, 768 1074.96Q735.95 946.91, 864 914.87Q914.31 805.18, 1024 855.5Q1088.31 823.81, 1120 888.12Q1191.22 799.34, 1280 870.56Q1417.08 847.64, 1440 984.72Q1596.05 980.77, 1600 1136.82Q1659.27 1100.09, 1696 1159.36Q1707.88 1075.24, 1792 1087.13Q1812.51 947.64, 1952 968.15z" fill="rgba(13, 71, 53, 1)"></path></g><defs><mask id="SvgjsMask1083"><rect width="1920" height="1080" fill="#ffffff"></rect></mask></defs></svg>